<svg version="1.1" xmlns="http://www.w3.org/2000/svg" xmlns:xlink="http://www.w3.org/1999/xlink" x="0px" y="0px"
	 viewBox="0 0 87 24" enable-background="new 0 0 87 24" xml:space="preserve">
<path id="_x31_6" fill="#ffffff" d="M22,19.2c0.2,0,0.1,0.1,0,0.2c-0.2,0.1-0.4,0.1-0.3-0.1C21.7,19.2,21.9,19.2,22,19.2z M21.9,19.8
	c0,0,0,0.1,0.1,0.1c0,0,0.1,0,0.1-0.1C22.1,19.8,22,19.8,21.9,19.8C22,19.7,21.9,19.8,21.9,19.8z M28.9,6.4c0.4-0.2,0.8-0.4,1.2-0.5
	c0.6-0.2,1.7-0.3,1.6-0.6c0,0-0.1,0-0.1,0c-1,0.3-2.1,0.7-3.1,1c-0.1,0-0.2,0.1-0.2,0.2C28.3,6.7,28.7,6.5,28.9,6.4z M32.5,5
	c-0.1,0-0.3,0.1-0.2,0.1C32.3,5.1,32.5,5.1,32.5,5C32.5,5,32.5,5,32.5,5z M28.2,6.1C28.2,6.1,28.1,6.1,28.2,6.1
	c-0.1,0-0.1,0.1-0.1,0.1C28.1,6.2,28.2,6.2,28.2,6.1C28.2,6.1,28.2,6.1,28.2,6.1z M32.2,5.1c-0.1-0.1-0.4,0-0.4,0.1
	C31.9,5.3,32.2,5.2,32.2,5.1z M28.1,7.4c0.1,0,0.3-0.2,0.2-0.2C28.1,7,27.9,7.4,28.1,7.4z M24.6,6.4c-0.1,0-0.4,0.2-0.2,0.3
	C24.6,6.8,24.8,6.4,24.6,6.4z M23.9,6.3c0.1,0.1,0.3,0,0.4,0C24.3,6.1,23.8,6.1,23.9,6.3z M26,6.3c0-0.3-0.5,0.2-0.8,0.2
	c-0.1,0-0.2,0.1-0.2,0.1c0,0,0,0,0.1,0C25.4,6.6,26,6.5,26,6.3z M25.9,6.7c0.1,0,0.2-0.1,0.2-0.1c0,0,0-0.1,0-0.1
	C26,6.5,25.9,6.6,25.9,6.7C25.9,6.6,25.9,6.7,25.9,6.7z M23.8,9.7c0.2-0.1,0.4-0.1,0.5-0.2c0,0,0.1-0.1,0.1-0.1
	c-0.2-0.2-1,0.1-1,0.3C23.4,9.9,23.7,9.7,23.8,9.7z M26,8C25.9,8,25.9,8,26,8c0.1,0.1,0.3,0,0.4-0.1c0,0,0,0,0,0
	C26.2,7.8,26,7.9,26,8z M21.8,17.9C21.8,17.9,21.7,17.9,21.8,17.9c-0.2,0.1-0.2,0.2-0.2,0.2c0,0,0.2,0.1,0.3,0
	C22,18,21.9,17.9,21.8,17.9z M27.8,6.2c-0.1-0.1-0.5,0-0.6,0.1c0,0,0,0.1,0,0.1C27.6,6.6,28,6.4,27.8,6.2z M23.2,9.8
	c-0.1-0.1-0.4,0-0.5,0.1C22.8,10.1,23.4,9.9,23.2,9.8z M23.3,9.3c0.3,0,0.5-0.3,0.5-0.5c0,0,0,0,0,0c-0.3,0-0.9,0.2-0.7,0.4
	c0,0.1,0.3-0.1,0.4-0.1C23.5,9.1,23.2,9.3,23.3,9.3z M43.2,16.9c-0.1,0-0.1,0.1,0,0.2c0.1,0.1,0.3,0,0.5,0c0.2,0,0.4,0,0.6,0
	c0.2,0,0.4,0,0.6,0c0.2,0,0.4,0,0.5-0.1c0,0,0.1-0.1,0-0.1c-0.3-0.3-1.1-0.1-1.6-0.1C43.6,16.8,43.3,16.8,43.2,16.9z M36.3,16
	c-0.1-0.1-0.7-0.2-0.8,0C35.1,16.5,36.5,16.3,36.3,16z M37.4,16.3c-0.2,0.5,1.1,0.5,1.8,0.5c0.1,0,0.6,0,0.6-0.2
	c0-0.3-0.8-0.2-1.2-0.2C38.2,16.3,37.5,15.9,37.4,16.3z M46.2,16.9c-0.2,0-0.3,0.1-0.5,0.1c0,0,0,0.1,0,0.2c0.1,0.1,0.4,0.1,0.6,0
	c0.1,0,0.2,0,0.2-0.2C46.5,16.9,46.3,16.9,46.2,16.9z M88.2,13.3c-0.1,0-0.2,0.1-0.3,0.1c0,0,0,0.1,0,0.1c0.1,0,0.2,0,0.2-0.1
	C88.3,13.4,88.3,13.3,88.2,13.3z M69.8,15.4c0.1,0,0.3,0,0.4-0.1c0,0,0-0.1,0-0.1c-0.1,0-0.3,0-0.4,0.1
	C69.8,15.4,69.8,15.4,69.8,15.4z M86.7,12.5c-0.6,0.3-1.4,0.2-2.1,0c-0.1,0-0.3,0-0.4,0c-0.3,0.1-0.6,0-0.9,0
	c-0.4-0.1-0.9-0.2-1.5,0c-0.1,0-0.2,0.1-0.4,0.1c-0.4,0-0.8-0.1-1.2-0.1c-0.4,0-0.8,0.2-1.2,0.1c-0.2,0-0.3,0-0.5,0.1
	c-0.5,0.2-0.5,0-1-0.1c-0.1,0-0.3,0-0.3,0c-0.1-0.3-0.5-0.1-0.8-0.1c-0.3,0-0.6,0.1-0.9-0.1c-0.3-0.1-0.5,0.1-0.9,0.2
	c-0.6,0.1-1,0-1.7,0.1c-0.5,0-0.8-0.2-1.4,0c-0.5,0.1-0.7-0.2-1.4-0.3c-0.7-0.1-1.6-0.2-2,0.2c-0.4,0.4,0.7,0.5,1,0.7
	c0.2,0.2,0.5,0.2,0.8,0.2c0.4,0,0.7,0,1.1,0c0.2,0,0.4,0,0.5-0.1c0,0,0-0.1,0-0.1c-0.2-0.1-0.7,0.1-0.7-0.1c0-0.3,0.9-0.1,1.3-0.1
	c0.2,0,0.3,0,0.5,0c0.6,0,1.3,0,1.9,0c0.1,0,0.4,0,0.3,0.1c-0.1,0.5-1.6-0.2-2.1,0.2c0,0-0.1,0.1,0,0.1c0.2,0.2,0.8,0.1,1.1,0.2
	c0.3,0.1,0.9,0,1,0.3c0.1,0.1-0.2,0.2-0.4,0.2c-0.3,0-0.7-0.1-0.9,0c0,0-0.1,0.1,0,0.1c0.3,0.2,1.1-0.2,1.5,0
	c0.5,0.2,0.4,0.8-0.2,0.7c-0.1,0,0.1-0.2-0.1-0.2c-0.2,0-0.4,0.2-0.6,0.2c-1-0.1-2.1-0.8-2.4-0.2c-0.1,0.3,1,0,1,0.3
	c0,0.4-1,0.1-1.5,0.2c-0.1,0-0.2-0.1-0.4-0.1c-0.1,0-0.4,0.2-0.7,0.2c-0.7,0-1.5,0.2-1.4,0.6c0.1,0.3,0.7-0.1,1.1,0
	c0.4,0,0.9,0,1.1-0.2c0-0.1-0.2-0.1-0.1-0.2c0.3-0.3,1.1-0.2,1.4-0.1c0.5,0.3-0.5,0.7-1,0.9c-0.1,0-0.2,0.1-0.3,0.1
	c-0.5,0.3-1.1,0.5-1.6,0.3c-0.1,0-0.3-0.2-0.6,0c0,0-0.3,0-0.4,0c-0.2-0.1-0.3-0.2-0.6-0.2c-0.4-0.1-0.1-0.4-0.6-0.6
	c-0.1-0.1-0.3,0.2-0.4,0.1c-0.1-0.1,0.3-0.3,0.3-0.4c0-0.3-0.6-0.3-1.2-0.1c-0.4,0.1-0.6,0-0.9,0c-0.4-0.1-1.1-0.1-1.2,0.2
	c0,0,0,0,0,0c-0.1,0.1-0.4-0.1-0.6-0.1c-1.2,0.1-2.4,0.2-3.6,0.2c-0.4,0-0.4-0.3-1-0.3c-0.4-0.1-0.6,0.4-1,0.2c0,0-0.1,0-0.2,0
	c-0.2,0-0.4,0.1-0.6,0.1c-0.2,0-0.3-0.2-0.3-0.3c-0.1-0.2-0.3-0.3-0.6-0.3c-0.5,0-1.5-0.1-1.6,0.3c0,0.4,1-0.3,1.2-0.1
	c0.2,0.3-0.9,0-1.1,0.5c-0.1,0.1,0.6,0,0.5,0.2c-0.1,0.8-2.3,1-2.4,0.4c0-0.1,0.5-0.2,0.4-0.4c-0.3-0.5-1.7-0.5-2.5-0.1
	c-0.1,0-0.1,0.1-0.1,0.1c0.1,0.1,0.4,0,0.6,0.1c0.2,0.1,0.5,0.1,0.4,0.3c-0.1,0.3-0.8,0.5-1.1,0.4c-0.2-0.1,0.1-0.3,0-0.5
	c-0.1-0.1-0.2,0.2-0.6-0.3c-0.1-0.2-0.6-0.1-0.8,0c-0.5,0.1,0.2,0.2,0.2,0.4c-0.1,0.2-0.7,0.6-1,0.5c-0.2-0.1,0.3-0.3,0.2-0.4
	c-0.1-0.1-0.3,0-0.4,0c-0.1,0-0.3,0.1-0.4,0c-0.9-0.2-2,0-3,0c-0.2,0-0.4,0-0.6,0c-0.8-0.2-1.8,0-2.6-0.2c-0.7-0.1-1.4,0-2.2,0.1
	c-0.2,0-0.4,0.1-0.4-0.2c0-0.1-0.3-0.2-0.5-0.2c-0.4-0.1-4-0.5-4.5-0.6c-0.1,0-0.3,0-0.4,0c-0.4,0.3,1.5,0.4,1.6,0.4
	c0.1,0,0.3,0.1,0.2,0.2c0,0.1-0.3,0.1-0.4,0.1c-0.3,0-2.2-0.1-2.4-0.1c-10-0.6-13.2-1.7-13.7-1.3c-0.6,0.5,1.1,0.8,1.6,1.2
	c0.3,0.3,0.7,0.6,1.1,1c0.1,0.1,0.4,0.3,0.1,0.4c-0.1,0-0.2-0.1-0.3,0c-0.4,0.2,0.5,0.5,0.2,0.7c-0.1,0.1-0.2-0.2-0.3-0.1
	c0,0,0.3,0.4,0.3,0.4c0,0.1,0.1,0.1,0.1,0.1c0,0,0,0,0,0c-0.3,0-0.3-0.5-0.6-0.4C20.9,17.9,21,18,21,18c0,0.1,0.1,0.2,0,0.4
	c0,0.1,0.1,0.2,0.2,0.3c0.1,0.1,0.2,0.3,0.3,0.4c0,0.1-0.1,0-0.3,0.2c-0.1,0.1,0.3,0.2,0,0.3c-0.4,0.1-0.4-0.3-0.6-0.4
	c-0.2-0.2-0.3-0.3-0.5-0.5c-0.1-0.1-0.2,0.1-0.3,0.1c-0.2,0-0.1-0.2-0.2-0.3c-0.3-0.1-0.4-0.3-0.6-0.4c-0.2-0.1-0.2-0.5-0.6-0.4
	c-0.3,0,0,0.2,0.1,0.3c0.2,0.2,0.3,0.3,0.5,0.5c0.2,0.2,0.2,0.4,0.4,0.5c0.2,0.1,0.4,0.3,0.6,0.5c0.2,0.2,0.4,0.3,0.6,0.5
	c0.2,0.1,0.7,0.3,0.4,0.4c-0.6,0.3-0.7-0.9-1.8-1.3c0,0-0.1,0-0.1,0c-0.1,0.5,1.2,0.4,0.6,0.8c-0.1,0,0.1,0.1,0.1,0.2
	c0.1,0.1,0.3,0.1,0.2,0.2c-0.2,0.1-0.4-0.1-0.5-0.1c-0.2,0,0-0.2-0.1-0.3c-0.1-0.1-0.7,0.2-0.8,0.1c-0.1,0,0.3-0.2,0.2-0.2
	c-0.1-0.1-0.3,0.1-0.3,0.1c-0.7,0-0.6-1-1.3-0.8c-0.3,0.1-0.1,0.3,0.1,0.5c0.1,0.1,0.2,0.1,0.2,0.2c0,0,0,0-0.1,0
	c-0.2,0-0.2-0.1-0.3-0.2c-0.1-0.1-0.2-0.3-0.4-0.3c0,0,0.1,0.1,0,0.1c-0.1,0-0.1,0-0.1,0c-0.3-0.3-0.5-0.5-0.8-0.8
	c0,0-0.1-0.1-0.1,0c-0.1,0,0.1,0.1,0,0.2c-0.1,0-0.4-0.2-0.6-0.4c-4-2.7-12-6.1-12.5-6.3C-3.8,9,5.5,8.7,5.8,8.7
	c10-0.6,14.7-1.7,15.3-1.9c0.2-0.1,0.5-0.1,0.7-0.1c0.3-0.1,0.7-0.2,1-0.2c0.2-0.1,0.4-0.1,0.7-0.2c0.1,0,0.2,0,0.2,0.1
	c0,0.3-0.7,0.3-1.2,0.5c-0.2,0.1-0.3-0.1-0.4,0.1c-0.1,0.1-0.3,0.1-0.3,0.2c0,0.1,0.2,0.1,0.4,0C22.4,7,22.7,7,22.9,6.9
	c0.1,0,0.2-0.1,0.3-0.1c0.2-0.1,0.4-0.2,0.7-0.1c0.1,0,0.2-0.1,0.3-0.1c0.1,0.1-0.4,0.3-0.2,0.3C24,7,24.2,6.9,24.3,6.9
	c0.1,0,0.3-0.2,0.5-0.1c0.1,0-0.1,0.1-0.1,0.2c0.1,0.2,0.6-0.3,0.9-0.2c0.3,0.1-0.8,0.4-0.6,0.5c0.4,0.3,1.6-0.9,2.1-0.7
	c0.2,0.1-0.3,0.3-0.6,0.4c-0.3,0.1-0.9,0.2-0.9,0.4c0.1,0.2,0.5-0.1,0.8-0.2C26.7,7,27,6.9,27.2,6.8c0.3-0.1,0.6-0.4,0.8-0.3
	c0.2,0.1-0.3,0.3-0.6,0.5c-0.3,0.2-0.6,0-0.9,0.2c-0.1,0-0.2,0.1-0.2,0.2c0,0.1-0.1,0.2-0.3,0.2c-0.1,0.1-0.5,0.1-0.5,0.2
	c0,0.1,0.4,0,0.4,0.1c-0.1,0.7-1.9,0.6-2.8,1c-0.1,0.1-0.4,0.2-0.4,0.3c0,0.1,0.3,0,0.2,0.1c0,0.2-0.8,0.1-0.8,0.3
	c0,0.1,0.3,0,0.4,0c0.1,0.1,0.1,0.2,0,0.2C22.3,10,22,10,21.7,10.1c-0.2,0.1-0.7,0.2-0.6,0.4c0,0,0.2,0,0.2,0c0.2,0,0.4-0.1,0.6-0.2
	c0.1,0,0.4-0.2,0.5-0.1c0.1,0.1-0.2,0.2-0.4,0.3c-0.1,0-0.2,0.1-0.2,0.1c2.6,0.3,18.9,1.2,36.2,1c1.4,0,2.7,0,4,0c1.5,0,3,0,4.5,0
	c0.5,0,1,0,1.5,0.1c0.4,0,0.4,0.1,0.7,0.2c0.4,0.2,1-0.2,1.6,0c0.2,0.1,0.5-0.1,0.8,0c0.6,0.1,1.2,0.1,1.9,0c0,0,0.1,0,0.1,0
	c0.5,0.1,1.1,0.1,1.7,0c0.1,0,0.2,0,0.3,0.1c0.3,0.1,0.6,0.1,1.1,0.1c0.5-0.1,1,0,1.5,0c0.5,0,1,0.1,1.5,0.1c1,0,2,0.1,3.1,0.1
	c1,0.1,2.1,0.1,3.1,0.2c0.2,0,0.5,0,0.7,0C86.6,12.3,87,12.3,86.7,12.5z M23.7,7.2C23.7,7.2,23.7,7.3,23.7,7.2
	c0.2,0.1,0.6,0,0.7-0.1c0,0,0-0.1,0-0.1C24.2,7,23.9,7.1,23.7,7.2z M23.2,7.8c0.1,0.2,0.7-0.1,0.5-0.2C23.6,7.4,23.1,7.7,23.2,7.8z
	 M22.4,8C22.5,8.1,23,8,23,7.8C22.9,7.7,22.3,7.9,22.4,8z M21.2,7c-0.1,0.1-0.1,0.2,0.1,0.2c0.2,0,0.4-0.1,0.4-0.2
	C21.7,6.9,21.4,6.9,21.2,7z M20.9,16.6c-0.3,0.1,0.3,0.4,0.4,0.3C21.5,16.7,21.2,16.5,20.9,16.6z M21.1,10.1
	C21.1,10.1,21.1,10.1,21.1,10.1c0.1,0,0.3-0.1,0.3-0.1c0,0,0,0-0.1,0C21.2,9.9,21,10,21.1,10.1z M20.3,10.4
	C20.3,10.4,20.2,10.4,20.3,10.4c0,0.2,0.4,0.2,0.6,0.1c0.1,0,0-0.1,0-0.1c0,0,0.1-0.2-0.1-0.2C20.5,10.1,20.5,10.4,20.3,10.4z
	 M19.8,7.4c0,0.1,0.2,0.1,0.3,0.1C20.2,7.3,19.8,7.2,19.8,7.4z M19.4,7.8c0.1,0.2,0.8-0.2,0.5-0.3C19.8,7.5,19.3,7.7,19.4,7.8z
	 M15.7,18.2c-0.3-0.1-0.4-0.3-0.6-0.1c-0.2,0.1,0.2,0.4,0.5,0.3C15.7,18.3,15.8,18.2,15.7,18.2z M16.3,19.1
	c-0.1,0.1,0.1,0.2,0.2,0.2C16.8,19.2,16.4,19,16.3,19.1z M17,18.9c0.1-0.1-0.1-0.1-0.2-0.1c0,0-0.1,0-0.1,0.1
	C16.8,18.9,16.9,19,17,18.9z M18.3,17.6c0.3-0.1-0.2-0.2-0.3-0.3c0,0-0.1,0-0.2,0.1C17.8,17.5,18.1,17.7,18.3,17.6z M21,14.1
	c-0.2-0.1-0.7,0.2-0.6,0.3C20.4,14.5,21.4,14.3,21,14.1z M51,15.2c0,0-0.1-0.1-0.1-0.1c-0.1,0-0.1,0.1-0.1,0.1c0,0,0.1,0.1,0.1,0.1
	C50.9,15.3,51,15.2,51,15.2z M58.6,14.5c-0.2,0-0.4,0.2-0.4,0.2c0,0,0,0.1,0,0.1c0.1,0,0.3,0,0.4,0C58.7,14.8,58.8,14.6,58.6,14.5z
	 M60,12.1c-0.1,0.4,1.9,0,1.5-0.3C61.2,11.6,60.1,11.8,60,12.1z M60.7,13c0-0.3-0.9-0.3-1.2-0.1C59,13.3,60.7,13.6,60.7,13z
	 M61.4,14.5c-0.1-0.2-0.8-0.1-1.1,0.1c-0.2,0.1-0.1,0.3,0,0.4c0.1,0,0.2,0,0.3,0C60.9,14.8,61.5,14.6,61.4,14.5z M61.3,13.3
	c0.3,0.1,0.7,0,0.9-0.2c0.2-0.2-0.1-0.2-0.1-0.3c-0.1-0.1-0.1-0.2-0.2-0.3c-0.2,0-0.6,0-0.6,0.2c0,0.2,0.7,0,0.6,0.2
	C61.8,13.2,61.3,13.1,61.3,13.3C61.2,13.2,61.3,13.3,61.3,13.3z M62.5,14.9c0,0-0.1-0.1-0.1-0.1c0,0-0.1,0-0.1,0
	c0,0.1-0.1,0.3,0.1,0.2C62.6,15,62.6,14.9,62.5,14.9z M62.4,13.5c-0.3,0-0.9,0.3-0.9,0.5c0,0.2,0.6,0.2,0.9,0
	C62.7,13.8,62.6,13.5,62.4,13.5z M63.1,12.6c0,0-0.1,0-0.2,0c-0.1,0-0.3,0-0.3,0.1c0,0.1,0.3,0.1,0.3,0
	C63.1,12.6,63.1,12.6,63.1,12.6z M63.5,12.3c0.2,0.5,1.8-0.1,2.7-0.1c0.1,0,0.3-0.1,0.4-0.2c0.1-0.2,0-0.3-0.3-0.3
	c-0.5,0-1,0-1.5,0.2c-0.5,0.2-0.3,0-0.7,0C63.9,11.9,63.5,12.2,63.5,12.3z M66.3,12.5c0,0-0.4,0.1-0.3,0.2c0.1,0.2,0.4,0.1,0.6,0
	c0.1,0,0.1-0.1,0.1-0.1C66.7,12.5,66.5,12.5,66.3,12.5z M66,13.7c-0.1,0-0.1,0.1-0.1,0.1c0,0,0.1,0,0.1,0c0.1,0,0.2,0,0.2-0.1
	C66.1,13.7,66.1,13.7,66,13.7z M65.1,13.4c0.1,0,0.4,0,0.5-0.1c0.1,0,0-0.2,0-0.3c-0.2-0.3-0.6-0.5-1-0.5c-0.5,0-0.7,0.4-0.6,0.6
	c0,0.1,0.3,0.1,0.4,0.1C64.6,13.3,64.8,13.4,65.1,13.4z M66.5,14.5c-0.1-0.6-1.3-0.4-1.4,0.1C65,15.1,66.6,14.9,66.5,14.5z
	 M67.4,14.2c-0.2-0.2-0.8,0.2-0.8,0.3C66.6,14.8,67.7,14.4,67.4,14.2z M72.5,13.9c-0.1,0.5,1,0,0.7-0.2C73,13.6,72.5,13.7,72.5,13.9
	z M70.4,14.5c0,0,0.1,0.1,0.2,0.1c0.2-0.1,0.5-0.3,0.3-0.5C70.6,13.9,70.3,14.3,70.4,14.5z M68,12.7C68,12.7,68,12.7,68,12.7
	c-0.1-0.1-0.3-0.1-0.4,0c0,0,0,0.1,0,0.1C67.7,12.8,67.9,12.8,68,12.7z M68.6,15.2c-0.1,0-0.2,0-0.3,0c0,0,0,0,0,0
	C68.3,15.3,68.5,15.3,68.6,15.2C68.6,15.2,68.6,15.2,68.6,15.2z M68,13.7c-0.2,0.4,0.6,0.3,0.9,0.1c0.3-0.2,0.4-0.4,0-0.4
	C68.6,13.4,68.1,13.5,68,13.7z M78,12.2C78.1,12.2,78,12.2,78,12.2c-0.1-0.1-0.3,0-0.3,0.1C77.8,12.3,78,12.3,78,12.2z M58.6,15.7
	C58.6,15.7,58.6,15.8,58.6,15.7c0.1,0.1,0.2,0,0.2,0c0,0,0-0.1,0-0.1C58.7,15.7,58.6,15.7,58.6,15.7z M84.7,13.7
	c0.1,0.5,1.4,0.2,1.4-0.1C86,12.9,84.6,13.6,84.7,13.7z M79.7,14.7C79.7,14.7,79.7,14.7,79.7,14.7C79.7,14.7,79.7,14.7,79.7,14.7
	C79.7,14.7,79.7,14.7,79.7,14.7z M85.2,14c-0.1-0.2-0.7-0.1-0.8,0C84.2,14.3,85.3,14.3,85.2,14z M79.7,14.7
	C79.7,14.7,79.7,14.7,79.7,14.7C79.7,14.7,79.7,14.7,79.7,14.7C79.7,14.7,79.7,14.7,79.7,14.7z M76.3,14.6c0-0.1-0.1-0.1-0.1-0.1
	c-0.1,0-0.1,0-0.2,0.1c0,0,0,0.1,0,0.1C76.1,14.7,76.2,14.7,76.3,14.6z M82.1,14.2c0.2,0.3,1.6,0.3,1.8-0.1
	C84.2,13.5,81.9,13.9,82.1,14.2z M84.9,14.9c0.2,0.4,1.3,0.4,1.2,0c0-0.3-0.8-0.2-1.1-0.1C84.9,14.8,84.9,14.9,84.9,14.9z
	 M80.9,14.9c-1,0.1-2,0-3,0.2c-0.1,0-0.3,0-0.4,0c-0.4-0.2-0.8-0.2-1.3-0.1c-0.2,0-0.4,0-0.7,0c-0.3,0.1-0.5,0.5-0.9,0.6
	c-0.3,0.1-0.4-0.2-0.7-0.1c-0.4,0.1,0,0.4,0.3,0.4c0.3,0,0.6,0,0.8-0.1c0.3-0.1,0.5-0.2,0.8,0c0.2,0.1,0.4,0.1,0.7,0
	c0.3-0.1,0.7-0.1,1-0.2c0.4-0.1,0.7-0.1,1.1-0.1c0.4-0.1,0.7-0.2,1,0c0,0,0.3,0,0.4,0c0.2,0,0.5,0,0.7,0c0.3,0,0.5,0,0.8-0.1
	c0.4-0.1,0.7-0.2,1.1-0.1c0.6,0,1.8,0.3,2-0.2c0.2-0.5-1.3-0.2-2-0.1C81.9,14.9,81.4,14.9,80.9,14.9z M65.9,16.2
	c0.2,0.2,1.1-0.2,0.9-0.3C66.6,15.7,65.7,15.9,65.9,16.2z M79.7,14.7c0.1,0.4,2,0.3,2.2-0.2C82.2,14,79.5,14.2,79.7,14.7z M84,13
	c0.9-0.4,2.8-0.4,2.8,0.3c0,0.1-0.3,0.1-0.4,0.1c-0.5,0-1,0-1.4,0c-0.4,0-0.4,0.1-0.8,0.3c-1.5,0.8-5.2-0.4-5,0.7c0,0,0.2,0,0.2,0
	c0.1,0,0.2-0.1,0.3,0c0.1,0.1,0,0.2-0.1,0.3c-0.2,0.1-0.4,0-0.5,0c-0.3,0.1-0.6,0.1-0.8-0.1c0,0,0,0-0.1-0.1
	c-0.2-0.1-0.5,0.2-0.6-0.1c0-0.1-0.4-0.1-0.6-0.1c-0.3,0-0.6-0.1-0.8-0.2c-0.2-0.1-0.3-0.3-0.6-0.4c-0.2,0-0.2-0.6,0-0.7
	c0.2-0.2,0.4-0.3,1-0.3c0.9,0,1.9,0,2.8,0c0.2,0,0.4,0.2,0.6,0.2c1.1,0,2.6-0.7,3,0c0.1,0.2-0.7,0.4-0.4,0.6
	c0.3,0.2,0.6-0.3,0.8-0.3c0.2,0,0.1,0.5,0.4,0.2C84,13.4,83.8,13.1,84,13z M77.5,13.2c0,0,0.1-0.1,0-0.1c-0.2-0.2-0.7-0.2-1,0
	c-0.1,0-0.1,0.1-0.1,0.1C76.5,13.5,77.2,13.4,77.5,13.2z M77.8,13.8C77.8,13.8,77.8,13.7,77.8,13.8c-0.1-0.1-0.3-0.1-0.4,0
	c0,0,0,0.1,0,0.1C77.5,13.9,77.7,13.9,77.8,13.8z M81.8,13.1c0,0-0.1,0-0.1,0.1c0,0.1,0.1,0.2,0.4,0.2
	C82.5,13.3,82.1,13.1,81.8,13.1z M36.7,16.2c0,0,0.2,0.2,0.4,0.1c0.4-0.2,0.3-0.6,0-0.6C36.8,15.6,36.8,16,36.7,16.2z M61,16.7
	c-0.1,0.2,0.6,0.4,0.8,0.1C61.9,16.6,61.2,16.5,61,16.7z M57.9,16.2C57.8,16.2,57.9,16.3,57.9,16.2c0.1,0.1,0.4,0.1,0.4,0
	c0,0,0-0.1,0-0.1C58.2,16.1,58,16.1,57.9,16.2z M62.6,15.9c0.1,0.1,0.6-0.2,0.8-0.1c0.2,0.1,0,0.3,0.2,0.3c0.4,0,1-0.4,1-0.6
	c0-0.2-0.5-0.3-0.7-0.1c0,0,0,0,0,0C63.7,15.9,62.2,15.6,62.6,15.9z M56.6,15.8c-0.1,0,0,0.1,0,0.1c0.2,0.2,0.9,0,1.2-0.2
	c0,0,0-0.1,0-0.1C57.5,15.5,56.9,15.6,56.6,15.8z M56.4,15.1c-0.1,0-0.1,0.1-0.2,0.1c0,0,0.1,0.1,0.1,0.1c0.1,0,0.2,0,0.3-0.1
	C56.6,15.1,56.5,15.1,56.4,15.1z M60.2,16.2c0,0.1,0.1,0.1,0.2,0.1c0.1,0,0.3,0,0.3-0.1c0-0.1-0.2-0.1-0.3-0.1
	C60.4,16.1,60.2,16.2,60.2,16.2z M57.5,17.1c0,0,0.1,0,0.2,0c0.1-0.1,0.1-0.2,0-0.2c0,0-0.1,0-0.2,0C57.4,16.9,57.5,17,57.5,17.1z
	 M47.3,17c-0.2,0.5,1.2,0.4,1.3,0C48.7,16.7,47.5,16.7,47.3,17z M66.9,16.4c-0.1,0-0.3,0-0.4,0.1c0,0.1,0.2,0.1,0.3,0.1
	c0.1,0,0.3-0.1,0.3-0.1C67.1,16.5,67,16.4,66.9,16.4z M65,15.6c0,0.2,0.5,0.3,0.8,0.1C66.2,15.3,65,15.2,65,15.6z M75.3,16.2
	c0.1,0.3,0.7,0.1,1,0c0,0,0.1-0.1,0-0.1c-0.2-0.2-0.7-0.2-1,0C75.3,16.1,75.3,16.1,75.3,16.2z M72.4,15.6c0.1,0.4,0.9,0.1,0.8-0.1
	C73.1,15.3,72.3,15.3,72.4,15.6z M64.5,16.7c0.1,0.3,1,0.2,1.2-0.1c0.2-0.2,0.1-0.6-0.3-0.6C65,16,64.4,16.4,64.5,16.7z M61.2,15.6
	c-0.1,0-0.3,0.1-0.3,0.1c0,0,0,0.1,0.1,0.1C61.1,15.8,61.2,15.7,61.2,15.6C61.3,15.6,61.2,15.6,61.2,15.6z"/>
</svg>
