<svg version="1.1" xmlns="http://www.w3.org/2000/svg" xmlns:xlink="http://www.w3.org/1999/xlink" x="0px" y="0px"
	 viewBox="0 0 87 24" enable-background="new 0 0 87 24" xml:space="preserve">
<path id="_x31_6" fill="#ffffff" d="M66.9,19.3c0.1,0.1-0.2,0.1-0.3,0.1c-0.1-0.1-0.2-0.2,0-0.2C66.7,19.2,66.8,19.2,66.9,19.3z M66.6,19.7
	c0,0-0.2,0.1-0.1,0.1c0,0,0.1,0.1,0.1,0.1C66.6,19.9,66.6,19.8,66.6,19.7C66.7,19.8,66.6,19.7,66.6,19.7z M60.2,6.5
	c0-0.1-0.1-0.1-0.2-0.2c-1-0.4-2.1-0.7-3.1-1c0,0-0.1,0-0.1,0c-0.1,0.4,1.1,0.4,1.6,0.6c0.4,0.1,0.8,0.3,1.2,0.5
	C59.8,6.5,60.2,6.7,60.2,6.5z M56,5c0,0.1,0.2,0.1,0.3,0.1C56.3,5,56.1,5,56,5C56,5,56,5,56,5z M60.4,6.2c0,0,0.1,0,0.1,0
	C60.5,6.2,60.5,6.1,60.4,6.2C60.4,6.1,60.4,6.1,60.4,6.2C60.3,6.1,60.3,6.1,60.4,6.2z M56.7,5.3c0.1-0.1-0.3-0.2-0.4-0.1
	C56.3,5.2,56.7,5.3,56.7,5.3z M60.3,7.2c-0.1,0.1,0.1,0.2,0.2,0.2C60.7,7.4,60.4,7,60.3,7.2z M64.2,6.7c0.1-0.1-0.1-0.3-0.2-0.3
	C63.7,6.4,63.9,6.8,64.2,6.7z M64.3,6.2c0,0.1,0.3,0.1,0.4,0C64.8,6.1,64.2,6.1,64.3,6.2z M63.4,6.6C63.5,6.6,63.5,6.6,63.4,6.6
	c0.1-0.1-0.1-0.2-0.1-0.2c-0.3,0-0.8-0.4-0.8-0.2C62.6,6.5,63.1,6.6,63.4,6.6z M62.7,6.6c0-0.1-0.1-0.1-0.2-0.1c0,0-0.1,0,0,0.1
	C62.5,6.6,62.6,6.7,62.7,6.6C62.7,6.7,62.7,6.6,62.7,6.6z M65.1,9.7c-0.1-0.2-0.9-0.5-1-0.3c0,0,0.1,0.1,0.1,0.1
	c0.2,0.1,0.3,0.2,0.5,0.2C64.8,9.7,65.2,9.9,65.1,9.7z M62.3,7.9C62.2,7.9,62.2,7.9,62.3,7.9c0,0.1,0.2,0.2,0.3,0.2c0,0,0,0,0-0.1
	C62.5,7.9,62.4,7.8,62.3,7.9z M66.7,18.1c0.1,0.1,0.2,0,0.3,0c0.1,0,0-0.1-0.1-0.2c0,0-0.1,0-0.1,0C66.7,17.9,66.5,18,66.7,18.1z
	 M61.3,6.5c0.1,0,0.1-0.1,0-0.1c-0.1-0.1-0.5-0.3-0.6-0.1C60.6,6.4,61,6.6,61.3,6.5z M65.8,10c0-0.1-0.4-0.2-0.5-0.1
	C65.2,9.9,65.8,10.1,65.8,10z M65.2,9.1c0.1,0,0.3,0.2,0.4,0.1c0.1-0.2-0.5-0.4-0.7-0.4c0,0,0,0,0,0c0,0.2,0.2,0.5,0.5,0.5
	C65.3,9.3,65.1,9.1,65.2,9.1z M44.8,16.8c-0.5,0-1.3-0.2-1.6,0.1c0,0,0,0.1,0,0.1c0.1,0.1,0.3,0.1,0.5,0.1c0.2,0,0.4,0,0.6,0
	c0.2,0,0.4,0,0.6,0c0.2,0,0.4,0.1,0.5,0c0.1,0,0-0.1,0-0.2C45.2,16.8,45,16.8,44.8,16.8z M53.1,16c-0.2-0.2-0.7-0.2-0.8,0
	C52,16.3,53.4,16.5,53.1,16z M49.9,16.3c-0.4,0-1.2-0.1-1.2,0.2c0,0.2,0.5,0.2,0.6,0.2c0.7,0,2,0,1.8-0.5
	C51.1,15.9,50.3,16.3,49.9,16.3z M42.1,17c0,0.1,0.2,0.1,0.2,0.2c0.2,0.1,0.4,0.1,0.6,0c0,0,0-0.2,0-0.2c-0.2,0-0.3-0.1-0.5-0.1
	C42.3,16.9,42.1,16.9,42.1,17z M0.3,13.4c0.1,0,0.2,0.1,0.2,0.1c0.1,0,0.1-0.1,0-0.1c-0.1,0-0.1-0.1-0.3-0.1
	C0.2,13.3,0.3,13.4,0.3,13.4z M18.7,15.3c-0.1-0.1-0.3-0.1-0.4-0.1c0,0-0.1,0.1,0,0.1c0.1,0.1,0.3,0.2,0.4,0.1
	C18.8,15.4,18.8,15.4,18.7,15.3z M2.2,12.3c0.2,0,0.5,0,0.7,0c1-0.1,2.1-0.1,3.1-0.2C7,12.1,8,12,9.1,12c0.5,0,1-0.1,1.5-0.1
	c0.5,0,1-0.1,1.5,0c0.4,0.1,0.7,0,1.1-0.1c0.1,0,0.2-0.1,0.3-0.1c0.6,0.1,1.2,0.1,1.7,0c0,0,0.1,0,0.1,0c0.7,0.1,1.3,0.1,1.9,0
	c0.3,0,0.6,0.1,0.8,0c0.6-0.2,1.2,0.2,1.6,0c0.3-0.2,0.4-0.2,0.7-0.2c0.5,0,1-0.1,1.5-0.1c1.5,0,3,0,4.5,0c1.3,0,2.7,0,4,0
	c17.3,0.2,33.6-0.7,36.2-1c0.1,0-0.1-0.1-0.2-0.1c-0.1-0.1-0.4-0.2-0.4-0.3c0.1-0.1,0.3,0.1,0.5,0.1c0.2,0.1,0.4,0.2,0.6,0.2
	c0.1,0,0.2,0,0.2,0c0.1-0.2-0.4-0.3-0.6-0.4c-0.2-0.1-0.6-0.1-0.7-0.3c-0.1-0.1-0.1-0.2,0-0.2c0.1,0,0.4,0.1,0.4,0
	c0-0.2-0.7-0.1-0.8-0.3c0-0.1,0.2,0,0.2-0.1c0-0.1-0.3-0.3-0.4-0.3c-0.9-0.4-2.8-0.3-2.8-1c0-0.1,0.4,0,0.4-0.1
	c0-0.1-0.4-0.1-0.5-0.2c-0.1-0.1-0.3-0.1-0.3-0.2c0,0-0.1-0.1-0.2-0.2c-0.3-0.1-0.5,0-0.9-0.2c-0.4-0.2-0.8-0.3-0.6-0.5
	c0.2-0.1,0.5,0.2,0.8,0.3c0.3,0.1,0.5,0.2,0.8,0.2c0.3,0.1,0.7,0.4,0.8,0.2C62.9,7.1,62.3,7,62,6.9c-0.3-0.1-0.8-0.3-0.6-0.4
	c0.5-0.2,1.7,1,2.1,0.7c0.2-0.1-0.8-0.4-0.6-0.5c0.2-0.1,0.8,0.4,0.9,0.2c0,0-0.2-0.1-0.1-0.2c0.1-0.1,0.3,0.1,0.5,0.1
	c0.2,0,0.4,0.2,0.4,0.1c0.1-0.1-0.4-0.3-0.2-0.3c0.1-0.1,0.3,0.1,0.3,0.1c0.3-0.1,0.5,0,0.7,0.1c0.1,0,0.2,0.1,0.3,0.1
	C65.9,7,66.1,7,66.3,7c0.2,0.1,0.4,0.1,0.4,0c0-0.1-0.2-0.1-0.3-0.2c-0.1-0.2-0.3,0-0.4-0.1c-0.5-0.2-1.2-0.2-1.2-0.5
	c0-0.1,0.2-0.1,0.2-0.1c0.2,0,0.4,0.1,0.7,0.2c0.3,0.1,0.7,0.2,1,0.2c0.2,0.1,0.5,0.1,0.7,0.1c0.7,0.2,5.3,1.3,15.3,1.9
	c0.4,0,9.6,0.3,3.4,3.4c-0.5,0.2-8.4,3.6-12.5,6.3c-0.2,0.1-0.5,0.4-0.6,0.4c-0.1,0,0.1-0.1,0-0.2c-0.1,0-0.1,0-0.1,0
	c-0.3,0.3-0.5,0.5-0.8,0.8c0,0-0.1,0.1-0.1,0c-0.1,0,0-0.1,0-0.1c-0.2-0.1-0.3,0.1-0.4,0.3c-0.1,0.1-0.1,0.2-0.3,0.2
	c0,0-0.1,0-0.1,0c0-0.1,0.1-0.2,0.2-0.2c0.2-0.1,0.3-0.4,0.1-0.5c-0.7-0.2-0.6,0.8-1.3,0.8c-0.1,0-0.2-0.2-0.3-0.1
	c-0.1,0.1,0.2,0.2,0.2,0.2c-0.1,0.1-0.7-0.2-0.8-0.1c-0.1,0.1,0.1,0.2-0.1,0.3c-0.2,0-0.4,0.2-0.5,0.1c-0.1-0.1,0.1-0.1,0.2-0.2
	c0-0.1,0.2-0.1,0.1-0.2c-0.6-0.3,0.7-0.3,0.6-0.8c0,0,0-0.1-0.1,0c-1,0.4-1.2,1.6-1.8,1.3c-0.3-0.1,0.2-0.3,0.4-0.4
	c0.2-0.2,0.4-0.3,0.6-0.5c0.2-0.2,0.4-0.3,0.6-0.5c0.2-0.1,0.2-0.3,0.4-0.5c0.2-0.2,0.3-0.4,0.5-0.5c0.1-0.1,0.3-0.2,0.1-0.3
	c-0.4-0.1-0.4,0.3-0.6,0.4c-0.3,0.1-0.3,0.3-0.6,0.4c-0.2,0.1-0.1,0.3-0.2,0.3c-0.1,0-0.2-0.2-0.3-0.1c-0.2,0.2-0.3,0.3-0.5,0.5
	c-0.2,0.1-0.2,0.6-0.6,0.4c-0.2-0.1,0.1-0.2,0-0.3c-0.2-0.2-0.3-0.1-0.3-0.2c0.1-0.2,0.2-0.3,0.3-0.4c0.1-0.1,0.3-0.2,0.2-0.3
	c-0.1-0.2,0-0.2,0-0.4c0,0,0.1-0.1-0.1-0.1c-0.4-0.1-0.3,0.4-0.6,0.4c0,0,0,0,0,0c0-0.1,0.1-0.1,0.1-0.1c0,0,0.3-0.4,0.3-0.4
	c-0.1-0.1-0.2,0.2-0.3,0.1c-0.3-0.2,0.6-0.5,0.2-0.7c-0.1-0.1-0.2,0.1-0.3,0c-0.3-0.1,0-0.3,0.1-0.4c0.3-0.3,0.7-0.6,1.1-1
	c0.5-0.4,2.2-0.7,1.6-1.2c-0.5-0.4-3.7,0.7-13.7,1.3c-0.2,0-2.2,0.2-2.4,0.1c-0.1,0-0.3-0.1-0.4-0.1c0-0.1,0.1-0.1,0.2-0.2
	c0.1,0,2-0.1,1.6-0.4c-0.1-0.1-0.3,0-0.4,0c-0.5,0-4.1,0.5-4.5,0.6c-0.2,0-0.5,0.1-0.5,0.2c0,0.2-0.3,0.2-0.4,0.2
	C48.4,16,47.7,16,47,16.1c-0.8,0.1-1.8,0-2.6,0.2c-0.2,0-0.4,0-0.6,0c-1,0.1-2.1-0.2-3,0c-0.1,0-0.3,0-0.4,0c-0.1,0-0.3-0.1-0.4,0
	c-0.1,0.1,0.4,0.3,0.2,0.4c-0.4,0.2-0.9-0.2-1-0.5c-0.1-0.2,0.6-0.3,0.2-0.4c-0.2-0.1-0.7-0.2-0.8,0C38,16.2,38,15.9,37.8,16
	c-0.1,0.1,0.2,0.4,0,0.5c-0.3,0.1-1-0.1-1.1-0.4c-0.1-0.2,0.3-0.2,0.4-0.3c0.2-0.1,0.5,0,0.6-0.1c0,0,0-0.1-0.1-0.1
	c-0.7-0.3-2.2-0.4-2.5,0.1c-0.1,0.2,0.5,0.3,0.4,0.4c-0.1,0.7-2.4,0.5-2.4-0.4c0-0.2,0.6,0,0.5-0.2c-0.2-0.4-1.2-0.1-1.1-0.5
	c0.1-0.2,1.2,0.4,1.2,0.1c0-0.4-1-0.3-1.6-0.3c-0.3,0-0.5,0.1-0.6,0.3c0,0.1-0.2,0.2-0.3,0.3c-0.1,0-0.4,0-0.6-0.1
	c-0.1,0-0.2,0-0.2,0c-0.4,0.2-0.6-0.3-1-0.2c-0.6,0.1-0.5,0.4-1,0.3c-1.2-0.1-2.4-0.1-3.6-0.2c-0.2,0-0.4,0.2-0.6,0.1c0,0,0,0,0,0
	c-0.1-0.2-0.8-0.3-1.2-0.2c-0.3,0.1-0.6,0.2-0.9,0c-0.6-0.2-1.1-0.2-1.2,0.1c0,0.1,0.5,0.3,0.3,0.4c-0.1,0-0.3-0.2-0.4-0.1
	c-0.4,0.2-0.2,0.5-0.6,0.6c-0.2,0-0.4,0.1-0.6,0.2c-0.1,0-0.3,0.1-0.4,0c-0.2-0.2-0.5,0-0.6,0c-0.6,0.2-1.1,0-1.6-0.3
	c-0.1,0-0.2-0.1-0.3-0.1c-0.5-0.2-1.5-0.7-1-0.9c0.3-0.2,1.1-0.2,1.4,0.1c0.1,0.1-0.2,0.1-0.1,0.2c0.1,0.3,0.7,0.2,1.1,0.2
	c0.3,0,1,0.3,1.1,0c0.1-0.4-0.8-0.6-1.4-0.6c-0.2,0-0.6-0.2-0.7-0.2c-0.2,0-0.3,0.1-0.4,0.1c-0.5-0.2-1.5,0.2-1.5-0.2
	c0-0.3,1.2,0,1-0.3c-0.3-0.6-1.4,0.1-2.4,0.2c-0.2,0-0.4-0.2-0.6-0.2c-0.1,0,0,0.2-0.1,0.2c-0.6,0-0.7-0.5-0.2-0.7
	c0.4-0.2,1.2,0.2,1.5,0c0,0,0-0.1,0-0.1c-0.3-0.2-0.6,0-0.9,0c-0.2,0-0.5-0.1-0.4-0.2c0.1-0.2,0.7-0.2,1-0.3c0.4-0.1,0.9,0,1.1-0.2
	c0,0,0-0.1,0-0.1c-0.5-0.3-2,0.4-2.1-0.2c0-0.1,0.2-0.1,0.3-0.1c0.6,0,1.3,0,1.9,0c0.2,0,0.4,0,0.5,0c0.4,0,1.3-0.2,1.3,0.1
	c0,0.2-0.6,0-0.7,0.1c0,0,0,0.1,0,0.1c0.1,0.1,0.3,0.1,0.5,0.1c0.4,0,0.7,0,1.1,0c0.4,0,0.6,0,0.8-0.2c0.3-0.2,1.3-0.4,1-0.7
	c-0.4-0.4-1.2-0.3-2-0.2c-0.8,0.1-0.9,0.4-1.4,0.3c-0.7-0.1-0.9,0.1-1.4,0c-0.7,0-1,0-1.7-0.1c-0.4,0-0.6-0.3-0.9-0.2
	c-0.3,0.1-0.6,0.1-0.9,0.1c-0.3,0-0.7-0.2-0.8,0.1c0,0-0.2-0.1-0.3,0c-0.5,0.1-0.5,0.3-1,0.1c-0.2-0.1-0.3-0.1-0.5-0.1
	c-0.4,0.1-0.8-0.1-1.2-0.1c-0.4,0-0.7,0.1-1.2,0.1c-0.1,0-0.2,0-0.4-0.1c-0.6-0.1-1.1-0.1-1.5,0c-0.3,0.1-0.6,0.1-0.9,0
	c-0.1,0-0.3,0-0.4,0c-0.6,0.2-1.5,0.3-2.1,0C1.5,12.3,2,12.3,2.2,12.3z M64.2,7C64.1,7.1,64.1,7.1,64.2,7c0.1,0.2,0.4,0.3,0.6,0.2
	c0,0,0,0,0-0.1C64.7,7.1,64.4,7,64.2,7z M64.9,7.6c-0.1,0.2,0.4,0.4,0.5,0.2C65.5,7.7,65,7.4,64.9,7.6z M65.6,7.8
	c0,0.1,0.5,0.3,0.6,0.2C66.2,7.9,65.6,7.7,65.6,7.8z M66.9,7c0,0.1,0.3,0.2,0.4,0.2c0.1,0,0.2-0.1,0.1-0.2C67.2,6.9,66.9,6.9,66.9,7
	z M67.2,16.8c0.1,0.2,0.7-0.1,0.4-0.3C67.4,16.5,67.1,16.7,67.2,16.8z M67.3,9.9C67.2,9.9,67.2,9.9,67.3,9.9
	c-0.1,0.1,0.1,0.2,0.1,0.2c0,0,0.1,0,0.1,0C67.5,10,67.4,9.9,67.3,9.9z M67.8,10.1c-0.1,0-0.1,0.1-0.1,0.2c0,0-0.1,0.1,0,0.1
	c0.2,0.1,0.6,0.1,0.6,0c0,0-0.1,0-0.1,0C68,10.4,68,10.1,67.8,10.1z M68.5,7.4c0.1,0,0.3,0,0.3-0.1C68.8,7.2,68.3,7.3,68.5,7.4z
	 M68.6,7.5c-0.3,0.1,0.4,0.5,0.5,0.3C69.2,7.7,68.8,7.5,68.6,7.5z M73,18.4c0.3,0.1,0.7-0.2,0.5-0.3c-0.2-0.1-0.3,0.1-0.6,0.1
	C72.7,18.2,72.9,18.3,73,18.4z M72.1,19.2c0.1,0,0.3-0.1,0.2-0.2C72.2,19,71.8,19.2,72.1,19.2z M71.8,18.9
	C71.8,18.8,71.8,18.8,71.8,18.9c-0.2-0.1-0.3,0-0.2,0.1C71.6,19,71.8,18.9,71.8,18.9z M70.7,17.4c0-0.1-0.1-0.1-0.2-0.1
	c-0.2,0-0.6,0.2-0.3,0.3C70.5,17.7,70.7,17.5,70.7,17.4z M68.2,14.4c0-0.1-0.4-0.4-0.6-0.3C67.2,14.3,68.2,14.5,68.2,14.4z
	 M37.7,15.3c0,0,0.1,0,0.1-0.1c0,0-0.1-0.1-0.1-0.1c-0.1,0-0.2,0-0.1,0.1C37.6,15.2,37.7,15.3,37.7,15.3z M29.9,14.8
	c0.1,0.1,0.3,0.1,0.4,0c0,0,0-0.1,0-0.1c0-0.1-0.2-0.3-0.4-0.2C29.8,14.6,29.9,14.8,29.9,14.8z M27,11.8c-0.4,0.3,1.6,0.7,1.5,0.3
	C28.5,11.8,27.3,11.6,27,11.8z M29,12.9c-0.3-0.2-1.2-0.2-1.2,0.1C27.9,13.6,29.5,13.3,29,12.9z M27.9,14.9c0,0,0.2,0.1,0.3,0
	c0.1-0.1,0.2-0.3,0-0.4c-0.3-0.2-1-0.3-1.1-0.1C27.1,14.6,27.7,14.8,27.9,14.9z M27.3,13.2c-0.1-0.1-0.6,0-0.7-0.2
	c-0.1-0.2,0.7,0,0.6-0.2c0-0.2-0.4-0.2-0.6-0.2c-0.2,0-0.2,0.2-0.2,0.3c-0.1,0.1-0.3,0.2-0.1,0.3C26.5,13.3,27,13.3,27.3,13.2
	C27.3,13.3,27.3,13.2,27.3,13.2z M26.1,15.1c0.2,0,0.1-0.2,0.1-0.2c0,0-0.1,0-0.1,0c-0.1,0-0.1,0-0.1,0.1C26,14.9,25.9,15,26.1,15.1
	z M26.1,14c0.3,0.2,0.9,0.3,0.9,0c0-0.3-0.6-0.6-0.9-0.5C25.9,13.5,25.8,13.8,26.1,14z M25.5,12.7c0.1,0,0.3,0.1,0.3,0
	c0-0.1-0.2-0.1-0.3-0.1c-0.1,0-0.2,0-0.2,0C25.4,12.6,25.5,12.6,25.5,12.7z M24.4,11.9c-0.4,0-0.2,0.2-0.7,0c-0.5-0.2-1-0.2-1.5-0.2
	c-0.3,0-0.4,0.1-0.3,0.3c0,0.1,0.3,0.2,0.4,0.2c0.9,0.1,2.5,0.6,2.7,0.1C25.1,12.2,24.7,11.9,24.4,11.9z M21.9,12.6
	c0,0,0.1,0.1,0.1,0.1c0.2,0.1,0.5,0.1,0.6,0c0.1-0.1-0.3-0.3-0.3-0.2C22.1,12.5,21.9,12.5,21.9,12.6z M22.4,13.8
	c0,0,0.1,0.1,0.2,0.1c0,0,0.1,0,0.1,0c0,0-0.1-0.1-0.1-0.1C22.5,13.7,22.4,13.7,22.4,13.8z M24.2,13.2c0.1,0,0.4,0,0.4-0.1
	c0.1-0.2-0.1-0.6-0.6-0.6c-0.5,0-0.9,0.2-1,0.5c0,0.1-0.1,0.2,0,0.3c0.1,0.1,0.4,0.1,0.5,0.1C23.7,13.4,24,13.3,24.2,13.2z
	 M23.5,14.6c-0.1-0.5-1.4-0.7-1.4-0.1C22,14.9,23.6,15.1,23.5,14.6z M22,14.5c0-0.1-0.6-0.5-0.8-0.3C20.9,14.4,22,14.8,22,14.5z
	 M15.4,13.7c-0.3,0.2,0.8,0.6,0.7,0.2C16,13.7,15.6,13.6,15.4,13.7z M17.7,14.1c-0.2,0.1,0.1,0.4,0.3,0.5c0.1,0,0.2,0,0.2-0.1
	C18.3,14.3,17.9,13.9,17.7,14.1z M21,12.8C21,12.8,21,12.7,21,12.8c-0.1-0.2-0.3-0.2-0.4-0.1c0,0,0,0,0,0
	C20.7,12.8,20.9,12.8,21,12.8z M20,15.2c0.1,0.1,0.2,0.1,0.3,0c0,0,0,0,0,0C20.2,15.2,20,15.1,20,15.2C20,15.2,20,15.2,20,15.2z
	 M19.7,13.4c-0.4,0-0.3,0.3,0,0.4c0.3,0.2,1.1,0.2,0.9-0.1C20.5,13.5,20,13.4,19.7,13.4z M10.8,12.3c0,0-0.1-0.1-0.2-0.1
	c0,0-0.1,0,0,0.1C10.6,12.3,10.7,12.3,10.8,12.3z M29.8,15.7C29.8,15.7,29.8,15.7,29.8,15.7c0,0.1,0.1,0.1,0.1,0.1
	c0,0,0.1,0,0.1-0.1C30,15.7,29.9,15.7,29.8,15.7z M2.5,13.7c0,0.3,1.3,0.5,1.4,0.1C3.9,13.6,2.5,12.9,2.5,13.7z M8.9,14.7
	C8.9,14.7,8.9,14.7,8.9,14.7C8.9,14.7,8.9,14.7,8.9,14.7C8.9,14.7,8.9,14.7,8.9,14.7z M4.1,14c-0.1-0.1-0.7-0.2-0.8,0
	C3.2,14.3,4.4,14.3,4.1,14z M8.9,14.7C8.9,14.7,8.9,14.7,8.9,14.7C8.9,14.7,8.9,14.7,8.9,14.7C8.9,14.7,8.9,14.7,8.9,14.7z
	 M12.6,14.7C12.6,14.7,12.6,14.6,12.6,14.7c0-0.1-0.1-0.2-0.2-0.2c0,0-0.2,0-0.1,0.1C12.3,14.7,12.5,14.7,12.6,14.7z M4.7,14.1
	c0.3,0.4,1.6,0.5,1.8,0.1C6.7,13.9,4.3,13.5,4.7,14.1z M3.6,14.8c-0.3-0.1-1.1-0.2-1.1,0.1c-0.1,0.4,1,0.4,1.2,0
	C3.7,14.9,3.7,14.8,3.6,14.8z M6,14.8c-0.6-0.1-2.2-0.4-2,0.1c0.2,0.5,1.4,0.2,2,0.2c0.4,0,0.7,0,1.1,0.1c0.2,0.1,0.5,0.1,0.8,0.1
	c0.2,0,0.5,0,0.7,0c0.1,0,0.4,0,0.4,0c0.2-0.2,0.6-0.1,1,0c0.4,0.1,0.7,0.1,1.1,0.1c0.3,0.1,0.7,0.1,1,0.2c0.3,0.1,0.5,0.1,0.7,0
	c0.2-0.1,0.4-0.1,0.8,0c0.2,0.1,0.6,0.1,0.8,0.1c0.3,0,0.7-0.2,0.3-0.4c-0.3-0.1-0.5,0.2-0.7,0.1c-0.4-0.1-0.6-0.5-0.9-0.6
	c-0.3-0.1-0.5,0-0.7,0c-0.5-0.1-0.9-0.1-1.3,0.1c-0.1,0-0.3,0.1-0.4,0c-1-0.2-2-0.1-3-0.2C7.1,14.9,6.6,14.9,6,14.8z M21.8,15.8
	c-0.3,0.2,0.7,0.6,0.9,0.3C22.9,15.9,22,15.7,21.8,15.8z M6.6,14.5c0.2,0.5,2.1,0.6,2.2,0.2C9,14.2,6.3,14,6.6,14.5z M4.7,13.5
	c0.3,0.3,0.2-0.2,0.4-0.2c0.2,0,0.5,0.4,0.8,0.3c0.3-0.2-0.5-0.4-0.4-0.6c0.3-0.6,1.9,0,3,0c0.2,0,0.4-0.1,0.6-0.2
	c0.9,0,1.9,0,2.8,0c0.5,0,0.7,0,1,0.3c0.2,0.2,0.2,0.7,0,0.7c-0.3,0.1-0.4,0.3-0.6,0.4c-0.2,0.1-0.4,0.2-0.8,0.2
	c-0.2,0-0.5,0-0.6,0.1c-0.1,0.3-0.5,0-0.6,0.1c0,0-0.1,0-0.1,0.1c-0.2,0.2-0.5,0.2-0.8,0.1c-0.2,0-0.4,0.1-0.5,0
	c-0.1-0.1-0.2-0.2-0.1-0.3c0.1-0.1,0.2,0,0.3,0c0.1,0,0.2,0.1,0.2,0c0.2-1.1-3.5,0.1-5-0.7c-0.4-0.2-0.4-0.3-0.8-0.3
	c-0.5,0-1,0-1.4,0c-0.1,0-0.4,0-0.4-0.1c0-0.7,2-0.7,2.8-0.3C4.7,13.1,4.5,13.4,4.7,13.5z M12.1,13.2c0,0,0-0.1-0.1-0.1
	c-0.3-0.1-0.8-0.1-1,0c0,0,0,0.1,0,0.1C11.3,13.4,12,13.5,12.1,13.2z M11.2,13.9C11.2,13.9,11.2,13.9,11.2,13.9
	c-0.1-0.2-0.3-0.2-0.4-0.2c0,0,0,0,0,0.1C10.8,13.9,11.1,13.9,11.2,13.9z M6.5,13.4c0.2,0.1,0.4-0.1,0.4-0.2c0,0-0.1-0.1-0.1-0.1
	C6.4,13.1,6.1,13.3,6.5,13.4z M51.4,15.7c-0.3,0.1-0.4,0.5,0,0.6c0.2,0.1,0.4-0.1,0.4-0.1C51.8,16,51.7,15.6,51.4,15.7z M26.7,16.8
	c0.1,0.3,0.9,0.1,0.8-0.1C27.4,16.5,26.6,16.6,26.7,16.8z M30.3,16.1C30.2,16.1,30.2,16.2,30.3,16.1c0,0.2,0.3,0.2,0.4,0.2
	c0,0,0.1-0.1,0-0.1C30.6,16.1,30.4,16.1,30.3,16.1z M24.6,15.4C24.6,15.4,24.7,15.4,24.6,15.4c-0.1-0.1-0.6,0-0.6,0.1
	c0,0.2,0.5,0.6,1,0.6c0.2,0,0-0.3,0.2-0.3c0.2-0.1,0.6,0.3,0.8,0.1C26.3,15.6,24.8,15.9,24.6,15.4z M30.8,15.6
	C30.8,15.6,30.7,15.7,30.8,15.6c0.2,0.3,0.9,0.5,1.2,0.3c0,0,0-0.1,0-0.1C31.7,15.6,31.1,15.5,30.8,15.6z M32,15.2
	c0,0.1,0.2,0.1,0.3,0.1c0,0,0.1-0.1,0.1-0.1c0,0-0.1-0.1-0.2-0.1C32.1,15.1,31.9,15.1,32,15.2z M28.1,16.1c-0.1,0-0.3,0-0.3,0.1
	c0,0.1,0.2,0.1,0.3,0.1c0.1,0,0.2,0,0.2-0.1C28.3,16.2,28.2,16.1,28.1,16.1z M31.1,16.9c0,0-0.1-0.1-0.2,0c-0.1,0-0.1,0.2,0,0.2
	c0,0,0.2,0,0.2,0C31.1,17,31.2,16.9,31.1,16.9z M39.9,17.1c0.1,0.4,1.5,0.5,1.3,0C41.1,16.7,39.8,16.7,39.9,17.1z M21.4,16.6
	c0,0.1,0.2,0.1,0.3,0.1c0.1,0,0.3,0,0.3-0.1c0-0.1-0.3-0.1-0.4-0.1C21.6,16.4,21.4,16.5,21.4,16.6z M22.8,15.7
	c0.3,0.2,0.8,0.1,0.8-0.1C23.6,15.2,22.3,15.3,22.8,15.7z M13.2,16c-0.3-0.1-0.8-0.1-1,0c0,0,0,0.1,0,0.1c0.3,0.2,1,0.3,1,0
	C13.3,16.1,13.3,16.1,13.2,16z M15.4,15.5c-0.1,0.2,0.7,0.5,0.8,0.1C16.2,15.3,15.5,15.3,15.4,15.5z M23.1,16.1
	c-0.4,0-0.5,0.4-0.3,0.6c0.2,0.2,1.1,0.3,1.2,0.1C24.1,16.4,23.5,16,23.1,16.1z M27.3,15.6c0,0.1,0.2,0.2,0.3,0.2
	c0.1,0,0.1,0,0.1-0.1C27.7,15.6,27.5,15.6,27.3,15.6C27.3,15.6,27.3,15.6,27.3,15.6z"/>
</svg>
